<svg height="1890pt" preserveAspectRatio="xMidYMid meet" viewBox="0 0 1890 1890" width="1890pt" xmlns="http://www.w3.org/2000/svg"><g transform="matrix(.1 0 0 -.1 0 1890)"><path d="m0 9450v-9450h9450 9450v9450 9450h-9450-9450zm13904 4335c213-255 357-438 609-775 125-168 238-318 250-334l23-30 119 179c148 225 365 573 568 912l157 262 53-22c81-33 646-317 802-402 113-62 347-198 364-211 6-5-115-195-236-371-258-375-615-832-901-1155l-104-117 154-193c192-240 368-471 669-883 314-428 309-421 309-432s-134-111-294-217c-204-137-805-481-817-468-3 4-99 130-213 280-114 151-253 331-309 401s-165 207-242 304c-76 97-142 174-146 169-4-4-79-97-166-207-88-111-215-266-283-345-141-166-631-660-654-660-32 0-344 277-591 524-181 181-355 378-355 402 0 5 189 198 421 429 475 475 899 909 899 922 0 4-44 55-96 113-174 190-786 870-1013 1125l-222 250 63 59c156 145 533 433 817 624l154 103 35-33c19-18 98-109 176-203zm-9704-55c223-28 417-86 615-185 164-82 291-173 420-301 135-134 328-396 307-415-10-9-1004-539-1012-539-3 0-14 17-25 37-30 56-133 151-200 184-151 74-396 78-578 9-134-51-258-172-311-305-98-244-69-652 61-874 47-79 134-171 190-200 98-50 300-67 431-36 171 41 383 171 521 321 35 39 65 64 70 58 8-9 910-992 958-1046l25-26-40-59c-160-235-457-470-762-604-269-118-488-169-808-189-628-39-1126 142-1517 551-153 161-272 334-367 537-274 585-288 1326-36 1913 275 639 835 1072 1508 1164 117 16 436 19 550 5zm6896-190c459-36 768-185 985-473 66-87 182-316 223-438 83-247 128-512 168-974 19-216 15-1237-5-1709-9-203-18-371-21-373-11-11-625-24-891-19-257 5-564 21-570 29-1 1 11 98 26 216 37 278 104 841 125 1051 24 251 30 754 10 906-18 139-55 277-94 347-70 129-198 185-361 157-346-58-521-439-595-1300-26-293-48-728-55-1070l-6-325-330-9c-330-9-977 3-993 18-4 4-10 341-14 749-9 955-23 1220-78 1494-50 243-140 397-268 460-52 25-67 28-162 28-123 0-208-23-335-88-96-50-207-152-264-242-76-119-72-78-51-612 21-503 63-1364 81-1642 8-133 8-166-3-172-32-21-1168-7-1435 17-72 6-73 7-78 38-25 159-59 1565-71 2937l-7 777 69 15c226 51 1052 147 1270 147h81l6-127c4-71 7-186 7-258v-130l31 53c38 68 162 197 248 261 138 102 323 184 502 222 150 32 427 32 544 0 166-45 300-126 423-256 125-130 212-279 267-456 15-46 29-91 31-99 3-8 21 16 45 60 205 380 665 703 1100 775 160 26 263 29 445 15zm5304-6231c57-6 106-12 108-14 6-5 40-166 77-366 63-334 125-790 175-1284 22-224 70-774 70-809 0-23-4-23-167-36-209-15-616-29-625-21-4 3-10 140-14 304l-7 297h-101c-125 0-333-18-357-30-12-7-25-55-53-197-19-104-40-222-46-263-18-129-1-115-147-112-256 5-655 21-660 26-24 23 300 1425 503 2182l76 281 62 7c508 55 796 64 1106 35zm-8824-121c-13-241-29-457-36-468-4-7-142-22-350-40-188-16-345-32-349-35-3-4-6-57-6-118v-112l299 4 299 4-7-314c-4-172-9-315-11-317-2-3-104 1-227 7-123 7-257 13-298 14l-75 2-3-121-3-121 358-5c197-3 367-9 377-13 18-8 18-17 12-149-12-244-49-589-66-616-9-14-133-8-1049 51-167 10-309 19-316 19-19 0-24 110-35 700-10 514 1 1437 18 1555l7 50 150 27c357 64 843 111 1214 116l104 2zm2480 101c243-23 452-82 596-166 76-45 189-151 240-227 118-173 178-392 199-728 21-344-22-649-122-853-195-400-592-548-1531-572-210-5-248-4-248 8 0 8-5 52-10 99-24 211-114 1370-167 2133-14 211-15 260-4 266 12 8 212 27 436 41 177 11 492 11 611-1zm3217-116c40-792 34-2036-11-2358l-7-50h-220c-239 1-443 12-466 26-18 11-26 327-28 1079-1 541 14 1398 25 1409 4 5 256 13 605 19l96 2zm-10122-218c32-121 102-399 155-617 54-219 100-398 103-398 10 0 248 868 306 1114l28 116h86c256-1 715-33 727-51 12-21 43-282 55-464 21-354 1-1305-37-1757l-7-78h-96c-101 0-423 16-526 25l-60 6 7 127c4 70 14 278 22 462 9 184 18 371 21 415l6 80-114-335c-100-292-221-634-256-724l-12-29-208 5c-115 3-217 10-227 16-15 8-32 75-86 339-89 436-189 895-197 911-4 7-5-278-3-634 4-541 2-648-9-655-8-5-170-9-361-9h-348v423c0 583 30 1809 45 1884 4 19 14 22 77 28 137 12 443 22 648 21l204-1z"/><path d="m15860 6691c-47-3-90-9-96-13s-14-22-17-40-26-150-50-293c-63-363-60-335-34-335 32 0 341 21 342 23 1 1-4 151-9 332-11 319-12 330-31 331-11 0-58-2-105-5z"/><path d="m9858 6109c18-299 35-554 38-566 4-20 10-23 55-23 77 0 182 28 234 62 93 62 134 156 142 328 9 194-30 401-103 540-45 87-85 134-142 167-42 25-59 28-152 31l-105 4z"/></g></svg>